<svg data-v-fde0c5aa="" xmlns="http://www.w3.org/2000/svg" viewBox="0 0 300 300" class="iconLeftSlogan"><!----><defs data-v-fde0c5aa=""><!----></defs><rect data-v-fde0c5aa="" fill="transparent" x="0" y="0" width="300px" height="300px" class="logo-background-square"></rect><defs data-v-fde0c5aa=""><!----></defs><g data-v-fde0c5aa="" id="1e54e404-793e-4fb2-8428-bf81ca808fe3" fill="#000000" transform="matrix(4.558668610408984,0,0,4.558668610408984,155.15061815654383,99.47343666211205)"><path d="M6.58 4.05L2.56 9.04L2.56 4.05L1.13 4.05L1.13 13.73L2.56 13.73L2.56 10.93L4.17 8.96L7.08 13.73L8.68 13.73L5.07 7.85L8.16 4.05ZM10.01 4.05L10.01 13.73L11.45 13.73L11.45 4.05ZM13.72 4.05L13.72 13.73L15.15 13.73L15.15 7.35L18.05 13.73L18.68 13.73L21.57 7.39L21.57 13.73L23.00 13.73L23.00 4.05L21.59 4.05L18.40 11.23L15.20 4.05Z"></path></g><defs data-v-fde0c5aa=""><linearGradient data-v-fde0c5aa="" gradientTransform="rotate(25)" id="e3370a33-3b4a-4321-a9b4-61ba223901f5" x1="0%" y1="0%" x2="100%" y2="0%"><stop data-v-fde0c5aa="" offset="0%" stop-color="#5106FF" stop-opacity="1"></stop><stop data-v-fde0c5aa="" offset="100%" stop-color="#61CBF2" stop-opacity="1"></stop></linearGradient></defs><g data-v-fde0c5aa="" id="f2336015-3a5e-4afd-90d7-fae4de6a71b8" stroke="none" fill="url(#e3370a33-3b4a-4321-a9b4-61ba223901f5)" transform="matrix(1.1924020815284093,0,0,1.1924020815284093,34.024365808161335,90.45049329184417)"><path d="M87.911 11.761c-2.691-.741-5.803-.405-8.542-.405l-11.987-.001c-16.416-.002-32.898-.432-49.307.033-5.361.152-7.222 3.391-7.898 8.214C8.996 28.048 7.813 36.494 6.63 44.94c-.869 6.205-2.935 13.309-.396 19.329 1.773 4.203 5.805 6.49 9.966 7.823.157 4.696.596 9.39 1.087 14.059.205 1.949 2.689 3.591 4.268 1.768a442.24 442.24 0 0 0 8.41-10.033c.99-1.214 1.962-2.443 2.932-3.674.571-.724 1.811-.442 2.968-.428l7.886.098c10.528.132 21.055.268 31.583.405 5.835.076 12.61.515 15.99-5.285 1.406-2.412 1.528-5.573 1.891-8.274.596-4.44.994-8.905 1.311-13.372.635-8.939.591-17.916.107-26.86-.371-4.597-2.134-7.471-6.722-8.735zm1.835 31.761c-.169 3.836-.493 7.664-.867 11.485-.307 3.132.052 10.998-3.02 13.025-4.137 2.73-12.03 1.235-17.418 1.165-10.154-.132-20.307-.262-30.461-.387l-5.915-.071c-2.409-.028-4.336 4.002-5.636 5.611a353.162 353.162 0 0 1-4.73 5.719c-.289-3.288-.513-6.582-.563-9.877-.017-1.102-.749-2.128-1.835-2.411-5.781-1.505-9.383-4.311-9.258-10.774.105-5.466 1.469-11.168 2.228-16.586l2.183-15.592c.329-2.351.621-4.711 1.028-7.05.411-2.363 8.511-1.429 9.947-1.429l33.963.004 15.982.002c4.363 0 13.767-1.961 14.258 4.14.416 7.678.453 15.345.114 23.026z"></path></g><defs data-v-fde0c5aa=""><!----></defs><g data-v-fde0c5aa="" id="de09b563-104d-4434-b544-d0319f8811b3" fill="#000000" transform="matrix(0.27251827939378737,0,0,0.27251827939378737,160.1983567115767,171.3172545080966)"><path d="M0.96 3.64L0.38 3.64L0.39 3.08L3.90 3.08L3.90 3.64L3.67 3.64L3.67 3.64Q3.12 3.64 2.95 3.73L2.95 3.73L2.95 3.73Q2.82 3.81 2.82 4.28L2.82 4.28L2.82 11.22L2.82 11.22Q2.82 11.68 2.93 11.77L2.93 11.77L2.93 11.77Q3.04 11.87 3.57 11.87L3.57 11.87L4.12 11.87L4.13 12.41L0.55 12.41L0.53 11.87L0.90 11.87L0.90 11.87Q1.46 11.87 1.57 11.77L1.57 11.77L1.57 11.77Q1.68 11.67 1.68 11.25L1.68 11.25L1.68 4.14L1.68 4.14Q1.68 3.77 1.58 3.71L1.58 3.71L1.58 3.71Q1.47 3.64 0.96 3.64L0.96 3.64ZM11.88 3.64L11.87 3.08L14.04 3.08L19.78 10.48L19.78 4.14L19.78 4.14Q19.78 3.81 19.62 3.72L19.62 3.72L19.62 3.72Q19.47 3.64 19.01 3.64L19.01 3.64L18.52 3.64L18.55 3.08L21.53 3.08L21.53 3.64L21.21 3.64L21.21 3.64Q20.74 3.64 20.59 3.75L20.59 3.75L20.59 3.75Q20.44 3.86 20.44 4.25L20.44 4.25L20.44 12.32L20.44 12.47L20.44 12.47Q20.44 12.52 20.43 12.57L20.43 12.57L20.43 12.57Q20.41 12.61 20.38 12.64L20.38 12.64L20.38 12.64Q20.36 12.65 20.31 12.65L20.31 12.65L20.12 12.65L20.06 12.65L20.03 12.65L20.00 12.64L20.00 12.64Q19.97 12.64 19.96 12.63L19.96 12.63L19.96 12.63Q19.95 12.61 19.95 12.60L19.95 12.60L19.95 12.60Q19.95 12.58 19.93 12.57L19.93 12.57L19.93 12.57Q19.91 12.54 19.88 12.50L19.88 12.50L19.88 12.50Q19.87 12.48 19.84 12.45L19.84 12.45L19.84 12.45Q19.82 12.41 19.81 12.40L19.81 12.40L13.71 4.56L13.77 11.22L13.77 11.22Q13.77 11.67 13.94 11.77L13.94 11.77L13.94 11.77Q14.10 11.87 14.81 11.87L14.81 11.87L15.05 11.87L15.05 12.41L12.11 12.41L12.11 11.87L12.53 11.87L12.53 11.87Q12.91 11.87 13.02 11.76L13.02 11.76L13.02 11.76Q13.11 11.66 13.12 11.25L13.12 11.25L13.12 3.80L12.97 3.64L11.88 3.64ZM29.24 10.04L29.24 10.04L29.73 9.98L29.91 10.85L29.91 10.85Q30.02 11.33 30.09 11.41L30.09 11.41L30.09 11.41Q30.16 11.49 30.57 11.64L30.57 11.64L30.57 11.64Q31.41 11.95 32.31 11.95L32.31 11.95L32.31 11.95Q33.09 11.95 33.63 11.49L33.63 11.49L33.63 11.49Q34.17 11.04 34.17 10.26L34.17 10.26L34.17 10.26Q34.17 9.65 33.71 9.21L33.71 9.21L33.71 9.21Q33.23 8.76 32.38 8.30L32.38 8.30L31.80 7.98L31.80 7.98Q31.06 7.55 30.82 7.36L30.82 7.36L30.82 7.36Q30.46 7.08 30.15 6.59L30.15 6.59L30.15 6.59Q29.84 6.10 29.84 5.46L29.84 5.46L29.84 5.46Q29.84 4.39 30.68 3.68L30.68 3.68L30.68 3.68Q31.52 2.97 32.63 2.97L32.63 2.97L32.63 2.97Q32.91 2.97 33.26 3.04L33.26 3.04L33.26 3.04Q33.46 3.08 33.79 3.17L33.79 3.17L34.03 3.25L34.03 3.25Q34.13 3.25 34.17 3.16L34.17 3.16L34.17 3.16Q34.22 3.05 34.22 2.98L34.22 2.98L34.23 2.88L34.71 2.85L34.92 5.41L34.42 5.43L34.30 4.18L34.30 4.18Q33.55 3.62 32.39 3.62L32.39 3.62L32.39 3.62Q31.75 3.62 31.24 4.05L31.24 4.05L31.24 4.05Q30.76 4.47 30.76 5.12L30.76 5.12L30.76 5.12Q30.76 5.72 31.21 6.17L31.21 6.17L31.21 6.17Q31.64 6.60 32.51 7.08L32.51 7.08L33.28 7.50L33.28 7.50Q34.23 8.03 34.77 8.59L34.77 8.59L34.77 8.59Q35.30 9.15 35.30 9.92L35.30 9.92L35.30 9.92Q35.30 10.99 34.45 11.76L34.45 11.76L34.45 11.76Q33.58 12.54 32.12 12.54L32.12 12.54L32.12 12.54Q31.56 12.54 31.06 12.41L31.06 12.41L31.06 12.41Q30.56 12.29 30.50 12.29L30.50 12.29L30.50 12.29Q30.25 12.29 30.25 12.58L30.25 12.58L30.26 12.76L29.78 12.80L29.78 12.80Q29.72 12.41 29.24 10.04ZM43.76 5.35L43.26 5.33L43.26 5.33Q43.39 4.17 43.47 3.08L43.47 3.08L51.55 3.08L51.55 3.08Q51.47 4.13 51.44 4.53L51.44 4.53L51.44 4.53Q51.40 5.26 51.38 5.32L51.38 5.32L50.88 5.30L50.88 5.30Q50.96 4.34 50.96 4.16L50.96 4.16L50.96 4.16Q50.96 3.88 50.82 3.79L50.82 3.79L50.82 3.79Q50.65 3.69 50.24 3.69L50.24 3.69L48.64 3.69L48.64 3.69Q48.13 3.69 48.01 3.79L48.01 3.79L48.01 3.79Q47.91 3.87 47.91 4.36L47.91 4.36L47.91 11.22L47.91 11.22Q47.91 11.66 48.05 11.76L48.05 11.76L48.05 11.76Q48.21 11.87 48.72 11.87L48.72 11.87L49.28 11.87L49.29 12.41L45.60 12.40L45.60 11.87L45.82 11.87L45.82 11.87Q46.49 11.87 46.63 11.79L46.63 11.79L46.63 11.79Q46.78 11.70 46.78 11.28L46.78 11.28L46.78 4.48L46.78 4.48Q46.78 3.92 46.68 3.80L46.68 3.80L46.68 3.80Q46.58 3.69 46.16 3.69L46.16 3.69L44.69 3.69L44.69 3.69Q44.50 3.69 44.43 3.71L44.43 3.71L44.43 3.71Q44.37 3.72 44.26 3.72L44.26 3.72L44.26 3.72Q44.23 3.72 44.11 3.79L44.11 3.79L44.11 3.79Q44.03 3.84 44.00 3.86L44.00 3.86L44.00 3.86Q43.98 3.88 43.93 3.99L43.93 3.99L43.93 3.99Q43.91 4.05 43.88 4.14L43.88 4.14L43.88 4.14Q43.85 4.21 43.83 4.36L43.83 4.36L43.83 4.36Q43.80 4.59 43.80 4.61L43.80 4.61L43.80 4.61Q43.80 4.80 43.79 4.95L43.79 4.95L43.79 4.95Q43.79 5.02 43.78 5.15L43.78 5.15L43.78 5.15Q43.78 5.29 43.76 5.35L43.76 5.35ZM59.30 12.41L59.29 11.87L59.46 11.87L59.46 11.87Q59.85 11.87 59.98 11.73L59.98 11.73L59.98 11.73Q60.10 11.57 60.44 10.83L60.44 10.83L61.35 8.82L61.92 7.53L61.92 7.53Q62.19 6.97 62.23 6.86L62.23 6.86L62.23 6.86Q62.30 6.70 62.35 6.60L62.35 6.60L62.35 6.60Q62.40 6.51 62.41 6.45L62.41 6.45L62.51 6.21L63.94 2.74L64.23 2.74L64.23 2.74Q65.08 4.98 67.27 10.25L67.27 10.25L67.27 10.25Q67.72 11.34 67.92 11.64L67.92 11.64L67.92 11.64Q68.05 11.87 68.49 11.87L68.49 11.87L68.70 11.87L68.69 12.41L65.50 12.41L65.51 11.87L65.93 11.87L65.93 11.87Q66.54 11.87 66.54 11.70L66.54 11.70L66.54 11.70Q66.54 11.63 66.40 11.27L66.40 11.27L65.37 8.72L62.12 8.72L61.01 11.18L61.01 11.18Q60.87 11.50 60.87 11.63L60.87 11.63L60.87 11.63Q60.87 11.79 60.97 11.83L60.97 11.83L60.97 11.83Q61.07 11.87 61.45 11.87L61.45 11.87L62.02 11.87L62.02 12.41L59.30 12.41ZM63.80 4.79L62.38 8.10L65.13 8.10L63.80 4.79ZM76.45 3.64L76.43 3.08L78.61 3.08L84.34 10.48L84.34 4.14L84.34 4.14Q84.34 3.81 84.19 3.72L84.19 3.72L84.19 3.72Q84.03 3.64 83.58 3.64L83.58 3.64L83.08 3.64L83.11 3.08L86.09 3.08L86.09 3.64L85.77 3.64L85.77 3.64Q85.31 3.64 85.16 3.75L85.16 3.75L85.16 3.75Q85.00 3.86 85.00 4.25L85.00 4.25L85.00 12.32L85.00 12.47L85.00 12.47Q85.00 12.52 84.99 12.57L84.99 12.57L84.99 12.57Q84.98 12.61 84.94 12.64L84.94 12.64L84.94 12.64Q84.93 12.65 84.88 12.65L84.88 12.65L84.68 12.65L84.62 12.65L84.59 12.65L84.57 12.64L84.57 12.64Q84.54 12.64 84.53 12.63L84.53 12.63L84.53 12.63Q84.51 12.61 84.51 12.60L84.51 12.60L84.51 12.60Q84.51 12.58 84.50 12.57L84.50 12.57L84.50 12.57Q84.47 12.54 84.44 12.50L84.44 12.50L84.44 12.50Q84.43 12.48 84.41 12.45L84.41 12.45L84.41 12.45Q84.39 12.41 84.38 12.40L84.38 12.40L78.27 4.56L78.34 11.22L78.34 11.22Q78.34 11.67 78.50 11.77L78.50 11.77L78.50 11.77Q78.66 11.87 79.37 11.87L79.37 11.87L79.61 11.87L79.61 12.41L76.67 12.41L76.67 11.87L77.10 11.87L77.10 11.87Q77.47 11.87 77.58 11.76L77.58 11.76L77.58 11.76Q77.68 11.66 77.68 11.25L77.68 11.25L77.68 3.80L77.54 3.64L76.45 3.64ZM94.11 5.35L93.61 5.33L93.61 5.33Q93.73 4.17 93.82 3.08L93.82 3.08L101.90 3.08L101.90 3.08Q101.81 4.13 101.79 4.53L101.79 4.53L101.79 4.53Q101.75 5.26 101.73 5.32L101.73 5.32L101.23 5.30L101.23 5.30Q101.31 4.34 101.31 4.16L101.31 4.16L101.31 4.16Q101.31 3.88 101.17 3.79L101.17 3.79L101.17 3.79Q100.99 3.69 100.59 3.69L100.59 3.69L98.98 3.69L98.98 3.69Q98.48 3.69 98.36 3.79L98.36 3.79L98.36 3.79Q98.26 3.87 98.25 4.36L98.25 4.36L98.25 11.22L98.25 11.22Q98.25 11.66 98.40 11.76L98.40 11.76L98.40 11.76Q98.55 11.87 99.07 11.87L99.07 11.87L99.63 11.87L99.64 12.41L95.95 12.40L95.95 11.87L96.17 11.87L96.17 11.87Q96.84 11.87 96.98 11.79L96.98 11.79L96.98 11.79Q97.13 11.70 97.13 11.28L97.13 11.28L97.13 4.48L97.13 4.48Q97.13 3.92 97.03 3.80L97.03 3.80L97.03 3.80Q96.93 3.69 96.50 3.69L96.50 3.69L95.03 3.69L95.03 3.69Q94.85 3.69 94.78 3.71L94.78 3.71L94.78 3.71Q94.71 3.72 94.60 3.72L94.60 3.72L94.60 3.72Q94.58 3.72 94.46 3.79L94.46 3.79L94.46 3.79Q94.38 3.84 94.35 3.86L94.35 3.86L94.35 3.86Q94.32 3.88 94.28 3.99L94.28 3.99L94.28 3.99Q94.25 4.05 94.23 4.14L94.23 4.14L94.23 4.14Q94.20 4.21 94.18 4.36L94.18 4.36L94.18 4.36Q94.15 4.59 94.15 4.61L94.15 4.61L94.15 4.61Q94.15 4.80 94.14 4.95L94.14 4.95L94.14 4.95Q94.14 5.02 94.13 5.15L94.13 5.15L94.13 5.15Q94.12 5.29 94.11 5.35L94.11 5.35ZM122.37 12.41L119.35 12.41L119.35 11.87L119.49 11.87L119.49 11.87Q120.07 11.87 120.19 11.77L120.19 11.77L120.19 11.77Q120.31 11.68 120.33 11.21L120.33 11.21L120.46 4.38L120.46 4.38Q120.46 4.35 120.46 4.28L120.46 4.28L120.46 4.28Q120.47 4.21 120.47 4.17L120.47 4.17L120.47 4.01L120.47 4.01Q120.47 3.76 120.39 3.71L120.39 3.71L120.39 3.71Q120.30 3.64 120.07 3.64L120.07 3.64L119.36 3.64L119.35 3.08L121.46 3.08L124.65 10.55L127.79 3.08L130.03 3.08L130.03 3.64L129.55 3.64L129.55 3.64Q129.10 3.64 128.98 3.71L128.98 3.71L128.98 3.71Q128.82 3.79 128.82 4.08L128.82 4.08L128.82 11.22L128.82 11.22Q128.82 11.68 128.94 11.77L128.94 11.77L128.94 11.77Q129.05 11.87 129.68 11.87L129.68 11.87L129.96 11.87L129.97 12.41L126.57 12.41L126.55 11.87L126.83 11.87L126.83 11.87Q127.45 11.87 127.57 11.77L127.57 11.77L127.57 11.77Q127.69 11.66 127.69 11.25L127.69 11.25L127.69 4.83L125.54 9.91L124.68 12.02L124.68 12.02Q124.54 12.37 124.50 12.44L124.50 12.44L124.50 12.44Q124.46 12.51 124.39 12.51L124.39 12.51L124.39 12.51Q124.29 12.51 123.84 11.52L123.84 11.52L121.03 5.01L120.97 11.39L120.97 11.39Q120.97 11.74 121.17 11.80L121.17 11.80L121.17 11.80Q121.41 11.87 122.37 11.87L122.37 11.87L122.37 12.41ZM137.71 3.64L137.70 3.08L144.91 3.08L144.91 3.08Q144.92 4.14 144.98 5.28L144.98 5.28L144.43 5.30L144.43 5.30Q144.42 4.66 144.36 4.25L144.36 4.25L144.36 4.25Q144.32 3.89 144.27 3.80L144.27 3.80L144.27 3.80Q144.21 3.71 144.09 3.69L144.09 3.69L144.09 3.69Q144.00 3.68 143.41 3.68L143.41 3.68L141.03 3.68L141.03 3.68Q140.49 3.68 140.34 3.77L140.34 3.77L140.34 3.77Q140.22 3.86 140.22 4.33L140.22 4.33L140.22 6.28L140.22 6.28Q140.22 6.69 140.27 6.76L140.27 6.76L140.27 6.76Q140.34 6.84 140.68 6.84L140.68 6.84L142.80 6.84L142.80 6.84Q143.16 6.84 143.24 6.73L143.24 6.73L143.24 6.73Q143.32 6.63 143.33 6.14L143.33 6.14L143.33 5.61L143.84 5.63L143.84 8.97L143.33 8.97L143.33 8.24L143.33 8.24Q143.33 7.66 143.25 7.57L143.25 7.57L143.25 7.57Q143.17 7.46 142.82 7.46L142.82 7.46L140.72 7.46L140.72 7.46Q140.39 7.46 140.30 7.54L140.30 7.54L140.30 7.54Q140.22 7.63 140.22 7.89L140.22 7.89L140.22 11.20L140.22 11.20Q140.22 11.57 140.30 11.67L140.30 11.67L140.30 11.67Q140.39 11.77 140.66 11.77L140.66 11.77L140.66 11.77Q143.58 11.75 144.11 11.69L144.11 11.69L144.11 11.69Q144.63 11.63 144.71 11.38L144.71 11.38L144.72 11.36L144.72 11.35L144.95 10.17L145.43 10.25L145.08 12.41L137.98 12.41L137.98 11.87L138.35 11.87L138.35 11.87Q138.91 11.87 138.99 11.80L138.99 11.80L138.99 11.80Q139.08 11.72 139.08 11.33L139.08 11.33L139.08 4.24L139.08 4.24Q139.08 3.82 138.93 3.73L138.93 3.73L138.93 3.73Q138.76 3.64 138.11 3.64L138.11 3.64L137.71 3.64ZM153.28 10.04L153.28 10.04L153.77 9.98L153.95 10.85L153.95 10.85Q154.06 11.33 154.13 11.41L154.13 11.41L154.13 11.41Q154.20 11.49 154.61 11.64L154.61 11.64L154.61 11.64Q155.45 11.95 156.34 11.95L156.34 11.95L156.34 11.95Q157.13 11.95 157.67 11.49L157.67 11.49L157.67 11.49Q158.20 11.04 158.20 10.26L158.20 10.26L158.20 10.26Q158.20 9.65 157.75 9.21L157.75 9.21L157.75 9.21Q157.27 8.76 156.41 8.30L156.41 8.30L155.84 7.98L155.84 7.98Q155.09 7.55 154.86 7.36L154.86 7.36L154.86 7.36Q154.50 7.08 154.19 6.59L154.19 6.59L154.19 6.59Q153.88 6.10 153.88 5.46L153.88 5.46L153.88 5.46Q153.88 4.39 154.72 3.68L154.72 3.68L154.72 3.68Q155.56 2.97 156.67 2.97L156.67 2.97L156.67 2.97Q156.95 2.97 157.29 3.04L157.29 3.04L157.29 3.04Q157.49 3.08 157.83 3.17L157.83 3.17L158.07 3.25L158.07 3.25Q158.16 3.25 158.20 3.16L158.20 3.16L158.20 3.16Q158.26 3.05 158.26 2.98L158.26 2.98L158.27 2.88L158.75 2.85L158.96 5.41L158.46 5.43L158.33 4.18L158.33 4.18Q157.59 3.62 156.43 3.62L156.43 3.62L156.43 3.62Q155.78 3.62 155.28 4.05L155.28 4.05L155.28 4.05Q154.80 4.47 154.80 5.12L154.80 5.12L154.80 5.12Q154.80 5.72 155.25 6.17L155.25 6.17L155.25 6.17Q155.68 6.60 156.55 7.08L156.55 7.08L157.32 7.50L157.32 7.50Q158.27 8.03 158.81 8.59L158.81 8.59L158.81 8.59Q159.34 9.15 159.34 9.92L159.34 9.92L159.34 9.92Q159.34 10.99 158.48 11.76L158.48 11.76L158.48 11.76Q157.62 12.54 156.16 12.54L156.16 12.54L156.16 12.54Q155.60 12.54 155.10 12.41L155.10 12.41L155.10 12.41Q154.59 12.29 154.54 12.29L154.54 12.29L154.54 12.29Q154.29 12.29 154.29 12.58L154.29 12.58L154.30 12.76L153.82 12.80L153.82 12.80Q153.76 12.41 153.28 10.04ZM167.49 10.04L167.49 10.04L167.99 9.98L168.17 10.85L168.17 10.85Q168.28 11.33 168.35 11.41L168.35 11.41L168.35 11.41Q168.42 11.49 168.83 11.64L168.83 11.64L168.83 11.64Q169.67 11.95 170.56 11.95L170.56 11.95L170.56 11.95Q171.35 11.95 171.89 11.49L171.89 11.49L171.89 11.49Q172.42 11.04 172.42 10.26L172.42 10.26L172.42 10.26Q172.42 9.65 171.96 9.21L171.96 9.21L171.96 9.21Q171.49 8.76 170.63 8.30L170.63 8.30L170.06 7.98L170.06 7.98Q169.31 7.55 169.08 7.36L169.08 7.36L169.08 7.36Q168.72 7.08 168.41 6.59L168.41 6.59L168.41 6.59Q168.10 6.10 168.10 5.46L168.10 5.46L168.10 5.46Q168.10 4.39 168.94 3.68L168.94 3.68L168.94 3.68Q169.78 2.97 170.88 2.97L170.88 2.97L170.88 2.97Q171.17 2.97 171.51 3.04L171.51 3.04L171.51 3.04Q171.71 3.08 172.05 3.17L172.05 3.17L172.29 3.25L172.29 3.25Q172.38 3.25 172.42 3.16L172.42 3.16L172.42 3.16Q172.48 3.05 172.48 2.98L172.48 2.98L172.49 2.88L172.97 2.85L173.18 5.41L172.68 5.43L172.55 4.18L172.55 4.18Q171.81 3.62 170.65 3.62L170.65 3.62L170.65 3.62Q170.00 3.62 169.50 4.05L169.50 4.05L169.50 4.05Q169.02 4.47 169.02 5.12L169.02 5.12L169.02 5.12Q169.02 5.72 169.47 6.17L169.47 6.17L169.47 6.17Q169.90 6.60 170.77 7.08L170.77 7.08L171.54 7.50L171.54 7.50Q172.49 8.03 173.02 8.59L173.02 8.59L173.02 8.59Q173.56 9.15 173.56 9.92L173.56 9.92L173.56 9.92Q173.56 10.99 172.70 11.76L172.70 11.76L172.70 11.76Q171.83 12.54 170.38 12.54L170.38 12.54L170.38 12.54Q169.82 12.54 169.32 12.41L169.32 12.41L169.32 12.41Q168.81 12.29 168.76 12.29L168.76 12.29L168.76 12.29Q168.51 12.29 168.51 12.58L168.51 12.58L168.52 12.76L168.04 12.80L168.04 12.80Q167.98 12.41 167.49 10.04ZM181.75 12.41L181.74 11.87L181.91 11.87L181.91 11.87Q182.30 11.87 182.43 11.73L182.43 11.73L182.43 11.73Q182.55 11.57 182.89 10.83L182.89 10.83L183.80 8.82L184.37 7.53L184.37 7.53Q184.64 6.97 184.68 6.86L184.68 6.86L184.68 6.86Q184.75 6.70 184.80 6.60L184.80 6.60L184.80 6.60Q184.85 6.51 184.86 6.45L184.86 6.45L184.96 6.21L186.39 2.74L186.68 2.74L186.68 2.74Q187.54 4.98 189.72 10.25L189.72 10.25L189.72 10.25Q190.18 11.34 190.37 11.64L190.37 11.64L190.37 11.64Q190.50 11.87 190.94 11.87L190.94 11.87L191.15 11.87L191.14 12.41L187.95 12.41L187.96 11.87L188.38 11.87L188.38 11.87Q188.99 11.87 188.99 11.70L188.99 11.70L188.99 11.70Q188.99 11.63 188.86 11.27L188.86 11.27L187.82 8.72L184.57 8.72L183.46 11.18L183.46 11.18Q183.33 11.50 183.33 11.63L183.33 11.63L183.33 11.63Q183.33 11.79 183.42 11.83L183.42 11.83L183.42 11.83Q183.52 11.87 183.90 11.87L183.90 11.87L184.47 11.87L184.47 12.41L181.75 12.41ZM186.25 4.79L184.84 8.10L187.58 8.10L186.25 4.79ZM199.27 8.24L199.27 8.24L199.27 8.24Q199.27 6.92 199.88 5.72L199.88 5.72L199.88 5.72Q200.50 4.52 201.73 3.72L201.73 3.72L201.73 3.72Q202.97 2.92 204.59 2.92L204.59 2.92L204.59 2.92Q205.86 2.92 207.44 3.57L207.44 3.57L207.44 2.86L208.00 2.86L208.10 5.92L207.55 5.93L207.46 4.48L207.46 4.48Q207.38 4.41 207.10 4.24L207.10 4.24L207.10 4.24Q206.85 4.07 206.10 3.83L206.10 3.83L206.10 3.83Q205.37 3.60 204.47 3.60L204.47 3.60L204.47 3.60Q203.49 3.60 202.72 3.93L202.72 3.93L202.72 3.93Q201.95 4.27 201.49 4.83L201.49 4.83L201.49 4.83Q201.02 5.39 200.78 6.08L200.78 6.08L200.78 6.08Q200.53 6.78 200.53 7.57L200.53 7.57L200.53 7.57Q200.53 9.33 201.65 10.69L201.65 10.69L201.65 10.69Q202.77 12.05 204.63 12.05L204.63 12.05L204.63 12.05Q205.32 12.05 205.96 11.85L205.96 11.85L205.96 11.85Q206.59 11.66 206.81 11.48L206.81 11.48L207.05 11.28L207.05 8.78L205.39 8.78L205.37 8.23L209.23 8.23L209.25 8.78L208.18 8.78L208.18 11.64L207.40 11.98L207.40 11.98Q206.70 12.30 206.47 12.39L206.47 12.39L206.47 12.39Q206.22 12.48 205.58 12.61L205.58 12.61L205.58 12.61Q204.97 12.74 204.36 12.74L204.36 12.74L204.36 12.74Q203.06 12.74 202.09 12.37L202.09 12.37L202.09 12.37Q201.10 12.00 200.48 11.36L200.48 11.36L200.48 11.36Q199.90 10.76 199.58 9.94L199.58 9.94L199.58 9.94Q199.27 9.15 199.27 8.24ZM217 3.64L216.99 3.08L224.20 3.08L224.20 3.08Q224.21 4.14 224.27 5.28L224.27 5.28L223.72 5.30L223.72 5.30Q223.71 4.66 223.65 4.25L223.65 4.25L223.65 4.25Q223.61 3.89 223.56 3.80L223.56 3.80L223.56 3.80Q223.50 3.71 223.38 3.69L223.38 3.69L223.38 3.69Q223.29 3.68 222.70 3.68L222.70 3.68L220.32 3.68L220.32 3.68Q219.78 3.68 219.63 3.77L219.63 3.77L219.63 3.77Q219.51 3.86 219.51 4.33L219.51 4.33L219.51 6.28L219.51 6.28Q219.51 6.69 219.56 6.76L219.56 6.76L219.56 6.76Q219.63 6.84 219.97 6.84L219.97 6.84L222.09 6.84L222.09 6.84Q222.45 6.84 222.53 6.73L222.53 6.73L222.53 6.73Q222.61 6.63 222.62 6.14L222.62 6.14L222.62 5.61L223.13 5.63L223.13 8.97L222.62 8.97L222.62 8.24L222.62 8.24Q222.62 7.66 222.54 7.57L222.54 7.57L222.54 7.57Q222.46 7.46 222.11 7.46L222.11 7.46L220.01 7.46L220.01 7.46Q219.68 7.46 219.59 7.54L219.59 7.54L219.59 7.54Q219.51 7.63 219.51 7.89L219.51 7.89L219.51 11.20L219.51 11.20Q219.51 11.57 219.59 11.67L219.59 11.67L219.59 11.67Q219.68 11.77 219.95 11.77L219.95 11.77L219.95 11.77Q222.87 11.75 223.40 11.69L223.40 11.69L223.40 11.69Q223.92 11.63 224 11.38L224 11.38L224.01 11.36L224.01 11.35L224.24 10.17L224.72 10.25L224.37 12.41L217.27 12.41L217.27 11.87L217.64 11.87L217.64 11.87Q218.20 11.87 218.28 11.80L218.28 11.80L218.28 11.80Q218.37 11.72 218.37 11.33L218.37 11.33L218.37 4.24L218.37 4.24Q218.37 3.82 218.22 3.73L218.22 3.73L218.22 3.73Q218.05 3.64 217.40 3.64L217.40 3.64L217 3.64ZM245.89 12.41L242.16 12.41L242.16 11.87L242.60 11.87L242.60 11.87Q242.98 11.87 243.03 11.81L243.03 11.81L243.03 11.81Q243.10 11.74 243.11 11.46L243.11 11.46L243.11 4.14L243.11 4.14Q243.11 3.81 243.02 3.72L243.02 3.72L243.02 3.72Q242.94 3.64 242.57 3.64L242.57 3.64L242.20 3.64L242.22 3.08L245.10 3.08L245.10 3.08Q246.25 3.08 246.90 3.19L246.90 3.19L246.90 3.19Q247.50 3.28 247.97 3.68L247.97 3.68L247.97 3.68Q249.16 4.64 249.16 6.19L249.16 6.19L249.16 6.19Q249.16 7.23 248.40 7.98L248.40 7.98L248.40 7.98Q247.62 8.74 246.21 8.73L246.21 8.73L246.21 8.73Q246.04 8.73 245.62 8.70L245.62 8.70L245.62 8.70Q245.51 8.69 245.09 8.62L245.09 8.62L245.09 8.62Q244.75 8.55 244.66 8.54L244.66 8.54L244.66 8.54Q244.36 8.47 244.35 8.46L244.35 8.46L244.23 8.44L244.23 11.46L244.23 11.46Q244.23 11.74 244.36 11.81L244.36 11.81L244.36 11.81Q244.47 11.87 245.19 11.87L245.19 11.87L245.89 11.87L245.89 12.41ZM244.23 4.28L244.23 8.02L244.23 8.02Q244.58 8.29 245.55 8.29L245.55 8.29L245.55 8.29Q246.69 8.29 247.26 7.75L247.26 7.75L247.26 7.75Q247.85 7.21 247.85 6.16L247.85 6.16L247.85 6.16Q247.85 4.98 246.94 4.31L246.94 4.31L246.94 4.31Q246.05 3.64 244.66 3.64L244.66 3.64L244.66 3.64Q244.41 3.64 244.32 3.75L244.32 3.75L244.32 3.75Q244.24 3.84 244.23 4.28L244.23 4.28ZM257.63 3.64L257.14 3.64L257.15 3.08L260.74 3.08L260.74 3.64L260.11 3.64L260.11 3.64Q259.73 3.64 259.62 3.72L259.62 3.72L259.62 3.72Q259.51 3.80 259.51 4.16L259.51 4.16L259.51 11.22L259.51 11.22Q259.51 11.57 259.59 11.67L259.59 11.67L259.59 11.67Q259.68 11.77 259.97 11.77L259.97 11.77L259.97 11.77Q262.84 11.74 263.50 11.63L263.50 11.63L263.50 11.63Q263.71 11.61 263.79 11.39L263.79 11.39L263.79 11.39Q263.87 11.17 264.07 10.05L264.07 10.05L264.56 10.08L264.10 12.41L257.34 12.41L257.33 11.87L257.71 11.87L257.71 11.87Q258.22 11.87 258.29 11.80L258.29 11.80L258.29 11.80Q258.37 11.72 258.38 11.33L258.38 11.33L258.38 4.09L258.38 4.09Q258.38 3.80 258.22 3.72L258.22 3.72L258.22 3.72Q258.07 3.64 257.63 3.64L257.63 3.64ZM272.31 12.41L272.30 11.87L272.47 11.87L272.47 11.87Q272.86 11.87 272.99 11.73L272.99 11.73L272.99 11.73Q273.11 11.57 273.44 10.83L273.44 10.83L274.35 8.82L274.93 7.53L274.93 7.53Q275.19 6.97 275.24 6.86L275.24 6.86L275.24 6.86Q275.30 6.70 275.35 6.60L275.35 6.60L275.35 6.60Q275.41 6.51 275.42 6.45L275.42 6.45L275.52 6.21L276.94 2.74L277.24 2.74L277.24 2.74Q278.09 4.98 280.28 10.25L280.28 10.25L280.28 10.25Q280.73 11.34 280.92 11.64L280.92 11.64L280.92 11.64Q281.06 11.87 281.50 11.87L281.50 11.87L281.71 11.87L281.70 12.41L278.50 12.41L278.52 11.87L278.93 11.87L278.93 11.87Q279.55 11.87 279.55 11.70L279.55 11.70L279.55 11.70Q279.55 11.63 279.41 11.27L279.41 11.27L278.37 8.72L275.13 8.72L274.02 11.18L274.02 11.18Q273.88 11.50 273.88 11.63L273.88 11.63L273.88 11.63Q273.88 11.79 273.98 11.83L273.98 11.83L273.98 11.83Q274.07 11.87 274.46 11.87L274.46 11.87L275.03 11.87L275.03 12.41L272.31 12.41ZM276.81 4.79L275.39 8.10L278.13 8.10L276.81 4.79ZM289.72 5.35L289.22 5.33L289.22 5.33Q289.34 4.17 289.43 3.08L289.43 3.08L297.51 3.08L297.51 3.08Q297.42 4.13 297.40 4.53L297.40 4.53L297.40 4.53Q297.36 5.26 297.34 5.32L297.34 5.32L296.84 5.30L296.84 5.30Q296.92 4.34 296.92 4.16L296.92 4.16L296.92 4.16Q296.92 3.88 296.78 3.79L296.78 3.79L296.78 3.79Q296.60 3.69 296.20 3.69L296.20 3.69L294.59 3.69L294.59 3.69Q294.09 3.69 293.97 3.79L293.97 3.79L293.97 3.79Q293.87 3.87 293.86 4.36L293.86 4.36L293.86 11.22L293.86 11.22Q293.86 11.66 294.01 11.76L294.01 11.76L294.01 11.76Q294.16 11.87 294.68 11.87L294.68 11.87L295.24 11.87L295.25 12.41L291.56 12.40L291.56 11.87L291.78 11.87L291.78 11.87Q292.45 11.87 292.59 11.79L292.59 11.79L292.59 11.79Q292.74 11.70 292.74 11.28L292.74 11.28L292.74 4.48L292.74 4.48Q292.74 3.92 292.64 3.80L292.64 3.80L292.64 3.80Q292.54 3.69 292.11 3.69L292.11 3.69L290.64 3.69L290.64 3.69Q290.46 3.69 290.39 3.71L290.39 3.71L290.39 3.71Q290.32 3.72 290.21 3.72L290.21 3.72L290.21 3.72Q290.19 3.72 290.07 3.79L290.07 3.79L290.07 3.79Q289.99 3.84 289.96 3.86L289.96 3.86L289.96 3.86Q289.93 3.88 289.89 3.99L289.89 3.99L289.89 3.99Q289.86 4.05 289.84 4.14L289.84 4.14L289.84 4.14Q289.81 4.21 289.79 4.36L289.79 4.36L289.79 4.36Q289.76 4.59 289.76 4.61L289.76 4.61L289.76 4.61Q289.76 4.80 289.75 4.95L289.75 4.95L289.75 4.95Q289.75 5.02 289.74 5.15L289.74 5.15L289.74 5.15Q289.73 5.29 289.72 5.35L289.72 5.35ZM305.26 3.64L305.25 3.08L312.43 3.08L312.43 3.08Q312.44 4.14 312.50 5.28L312.50 5.28L311.95 5.30L311.95 5.30Q311.94 4.66 311.88 4.25L311.88 4.25L311.88 4.25Q311.84 3.89 311.79 3.80L311.79 3.80L311.79 3.80Q311.73 3.71 311.62 3.69L311.62 3.69L311.62 3.69Q311.52 3.68 310.93 3.68L310.93 3.68L308.55 3.68L308.55 3.68Q308.01 3.68 307.86 3.77L307.86 3.77L307.86 3.77Q307.74 3.86 307.74 4.33L307.74 4.33L307.74 6.28L307.74 6.28Q307.74 6.69 307.79 6.76L307.79 6.76L307.79 6.76Q307.86 6.84 308.20 6.84L308.20 6.84L310.32 6.84L310.32 6.84Q310.68 6.84 310.76 6.74L310.76 6.74L310.76 6.74Q310.84 6.64 310.84 6.17L310.84 6.17L310.84 5.63L311.36 5.63L311.36 8.97L310.84 8.97L310.84 8.26L310.84 8.26Q310.84 7.68 310.76 7.57L310.76 7.57L310.76 7.57Q310.68 7.46 310.34 7.46L310.34 7.46L308.25 7.46L308.25 7.46Q307.91 7.46 307.83 7.54L307.83 7.54L307.83 7.54Q307.74 7.63 307.74 7.89L307.74 7.89L307.74 11.20L307.74 11.20Q307.74 11.60 307.81 11.73L307.81 11.73L307.81 11.73Q307.89 11.87 308.16 11.87L308.16 11.87L309.09 11.87L309.09 12.41L305.50 12.41L305.50 11.87L305.91 11.87L305.91 11.87Q306.41 11.87 306.51 11.79L306.51 11.79L306.51 11.79Q306.61 11.70 306.61 11.33L306.61 11.33L306.61 4.24L306.61 4.24Q306.61 3.79 306.43 3.71L306.43 3.71L306.43 3.71Q306.30 3.64 305.26 3.64L305.26 3.64ZM320.93 7.83L320.93 7.83L320.93 7.83Q320.93 6.62 321.33 5.68L321.33 5.68L321.33 5.68Q321.75 4.72 322.44 4.12L322.44 4.12L322.44 4.12Q323.13 3.51 323.99 3.19L323.99 3.19L323.99 3.19Q324.83 2.88 325.78 2.88L325.78 2.88L325.78 2.88Q327.04 2.88 328.09 3.40L328.09 3.40L328.09 3.40Q329.17 3.93 329.88 5.07L329.88 5.07L329.88 5.07Q330.58 6.17 330.59 7.75L330.59 7.75L330.59 7.75Q330.59 8.70 330.28 9.54L330.28 9.54L330.28 9.54Q329.97 10.38 329.37 11.10L329.37 11.10L329.37 11.10Q328.76 11.81 327.82 12.22L327.82 12.22L327.82 12.22Q326.86 12.63 325.67 12.64L325.67 12.64L325.67 12.64Q324.54 12.64 323.60 12.23L323.60 12.23L323.60 12.23Q322.66 11.83 322.10 11.14L322.10 11.14L322.10 11.14Q321.53 10.45 321.23 9.60L321.23 9.60L321.23 9.60Q320.93 8.72 320.93 7.83ZM322.18 7.38L322.18 7.38L322.18 7.38Q322.18 8.52 322.62 9.60L322.62 9.60L322.62 9.60Q323.02 10.64 323.95 11.33L323.95 11.33L323.95 11.33Q324.86 12.03 326.05 12.04L326.05 12.04L326.05 12.04Q327.42 12.04 328.36 11.01L328.36 11.01L328.36 11.01Q329.31 9.97 329.31 8.10L329.31 8.10L329.31 8.10Q329.31 5.99 328.15 4.72L328.15 4.72L328.15 4.72Q327.00 3.46 325.49 3.45L325.49 3.45L325.49 3.45Q324.97 3.45 324.42 3.65L324.42 3.65L324.42 3.65Q323.88 3.85 323.37 4.25L323.37 4.25L323.37 4.25Q322.83 4.68 322.51 5.48L322.51 5.48L322.51 5.48Q322.18 6.27 322.18 7.38ZM339.04 3.64L338.65 3.64L338.66 3.08L341.88 3.08L341.88 3.08Q343.01 3.08 343.62 3.21L343.62 3.21L343.62 3.21Q344.26 3.37 344.72 3.75L344.72 3.75L344.72 3.75Q345.73 4.57 345.73 5.71L345.73 5.71L345.73 5.71Q345.73 6.43 345.26 7.04L345.26 7.04L345.26 7.04Q344.76 7.66 343.73 7.92L343.73 7.92L346.42 11.49L346.42 11.49Q346.73 11.87 347.02 11.87L347.02 11.87L347.62 11.87L347.65 12.41L345.62 12.41L342.62 8.10L342.45 8.10L342.45 8.10Q342.41 8.10 342.36 8.11L342.36 8.11L342.36 8.11Q342.30 8.11 342.29 8.11L342.29 8.11L342.29 8.11Q341.41 8.11 341.01 8.03L341.01 8.03L341.01 11.46L341.01 11.46Q341.01 11.76 341.15 11.81L341.15 11.81L341.15 11.81Q341.28 11.87 341.98 11.87L341.98 11.87L342.69 11.87L342.67 12.41L338.94 12.41L338.94 11.87L339.26 11.87L339.26 11.87Q339.73 11.87 339.79 11.81L339.79 11.81L339.79 11.81Q339.88 11.74 339.88 11.46L339.88 11.46L339.88 4.14L339.88 4.14Q339.88 3.82 339.68 3.73L339.68 3.73L339.68 3.73Q339.46 3.64 339.04 3.64L339.04 3.64ZM341.01 4.28L341.01 7.57L341.01 7.57Q341.20 7.70 341.91 7.71L341.91 7.71L341.91 7.71Q343.18 7.71 343.76 7.27L343.76 7.27L343.76 7.27Q344.35 6.84 344.35 5.92L344.35 5.92L344.35 5.92Q344.35 4.92 343.57 4.27L343.57 4.27L343.57 4.27Q342.82 3.64 341.43 3.64L341.43 3.64L341.43 3.64Q341.18 3.64 341.10 3.75L341.10 3.75L341.10 3.75Q341.02 3.84 341.01 4.28L341.01 4.28ZM358.57 12.41L355.54 12.41L355.54 11.87L355.68 11.87L355.68 11.87Q356.27 11.87 356.38 11.77L356.38 11.77L356.38 11.77Q356.51 11.68 356.52 11.21L356.52 11.21L356.65 4.38L356.65 4.38Q356.65 4.35 356.66 4.28L356.66 4.28L356.66 4.28Q356.67 4.21 356.67 4.17L356.67 4.17L356.67 4.01L356.67 4.01Q356.67 3.76 356.59 3.71L356.59 3.71L356.59 3.71Q356.49 3.64 356.27 3.64L356.27 3.64L355.56 3.64L355.54 3.08L357.66 3.08L360.85 10.55L363.99 3.08L366.22 3.08L366.22 3.64L365.75 3.64L365.75 3.64Q365.30 3.64 365.18 3.71L365.18 3.71L365.18 3.71Q365.02 3.79 365.02 4.08L365.02 4.08L365.02 11.22L365.02 11.22Q365.02 11.68 365.13 11.77L365.13 11.77L365.13 11.77Q365.24 11.87 365.87 11.87L365.87 11.87L366.15 11.87L366.17 12.41L362.77 12.41L362.75 11.87L363.03 11.87L363.03 11.87Q363.64 11.87 363.76 11.77L363.76 11.77L363.76 11.77Q363.88 11.66 363.88 11.25L363.88 11.25L363.88 4.83L361.73 9.91L360.88 12.02L360.88 12.02Q360.74 12.37 360.69 12.44L360.69 12.44L360.69 12.44Q360.65 12.51 360.58 12.51L360.58 12.51L360.58 12.51Q360.49 12.51 360.04 11.52L360.04 11.52L357.23 5.01L357.16 11.39L357.16 11.39Q357.16 11.74 357.36 11.80L357.36 11.80L357.36 11.80Q357.60 11.87 358.57 11.87L358.57 11.87L358.57 12.41Z"></path></g></svg>